<?xml version="1.0" encoding="UTF-8"?>
<svg width="32px" height="32px" viewBox="0 0 32 32" version="1.1" xmlns="http://www.w3.org/2000/svg" xmlns:xlink="http://www.w3.org/1999/xlink">
    <title>phone</title>
    <g id="Icônes-du-menu" stroke="none" stroke-width="1" fill="none" fill-rule="evenodd">
        <g id="Artboard" transform="translate(-394.000000, -950.000000)">
            <g id="phone" transform="translate(394.000000, 950.000000)">
                <g id="Selected-Contact-Phone-2" transform="translate(8.000000, 4.000000)" fill="#03A9F4" fill-rule="nonzero">
                    <path d="M12,0 C13.1045695,0 14,0.8954305 14,2 L14,2 L14.000963,9.80325037 C13.3935565,9.45173416 12.7188084,9.20365268 12.0008069,9.08309386 L12,3 L2,3 L2,19 L6.52856479,19.0008689 C6.86891775,19.3809934 7.25703086,19.7174621 7.6834702,20.0008411 L6,20 C5.44771525,20 5,20.4477153 5,21 L5,21 L5,22 C5,22.5522847 5.44771525,23 6,23 L6,23 L8,23 C8.55228475,23 9,22.5522847 9,22 L9,22 L9,21 C9,20.8696639 8.97506524,20.7451516 8.92970578,20.6309732 C9.57377877,20.870252 10.2717372,21 11,21 C12.093259,21 13.1182253,20.7076045 14.000963,20.1967496 L14,22 C14,23.1045695 13.1045695,24 12,24 L12,24 L2,24 C0.8954305,24 0,23.1045695 0,22 L0,22 L0,2 C0,0.8954305 0.8954305,0 2,0 L2,0 Z M9.5,1 L4.5,1 C4.22385763,1 4,1.22385763 4,1.5 C4,1.77614237 4.22385763,2 4.5,2 L4.5,2 L9.5,2 C9.77614237,2 10,1.77614237 10,1.5 C10,1.22385763 9.77614237,1 9.5,1 L9.5,1 Z" id="Rectangle-44"></path>
                </g>
                <g id="Loupe" transform="translate(15.000000, 15.000000)" stroke="#03A9F4" stroke-width="2">
                    <circle id="Oval-2" cx="4" cy="4" r="4"></circle>
                    <line x1="7" y1="7" x2="11" y2="11" id="Line-3" stroke-linecap="round"></line>
                </g>
            </g>
        </g>
    </g>
</svg>